<svg width="19" height="23" viewBox="0 0 19 23" fill="none" xmlns="http://www.w3.org/2000/svg">
<path d="M9.33594 22.5156C9.52344 22.5156 9.80469 22.4453 10.0977 22.293C16.4375 18.7891 18.6289 17.2422 18.6289 13.1992V4.77344C18.6289 3.53125 18.1133 3.10938 17.0938 2.67578C15.8281 2.13672 11.6328 0.660156 10.3789 0.226562C10.0508 0.121094 9.67578 0.0390625 9.33594 0.0390625C8.98438 0.0390625 8.62109 0.144531 8.28125 0.226562C7.02734 0.589844 2.83203 2.14844 1.56641 2.67578C0.546875 3.09766 0.0429688 3.53125 0.0429688 4.77344V13.1992C0.0429688 17.2422 2.24609 18.7773 8.57422 22.293C8.85547 22.4453 9.14844 22.5156 9.33594 22.5156ZM9.33594 20.3359C9.17188 20.3359 8.99609 20.2773 8.66797 20.0898C3.57031 16.9844 1.97656 16.1172 1.97656 12.7891V5.125C1.97656 4.73828 2.04688 4.58594 2.35156 4.45703C4.01562 3.80078 7.23828 2.72266 8.82031 2.10156C9.03125 2.01953 9.19531 1.99609 9.33594 1.99609C9.47656 1.99609 9.62891 2.01953 9.85156 2.10156C11.4219 2.72266 14.6211 3.87109 16.3086 4.45703C16.6133 4.57422 16.6953 4.73828 16.6953 5.125V12.7891C16.6953 16.1289 15.0547 17.0195 9.99219 20.0898C9.67578 20.2773 9.5 20.3359 9.33594 20.3359ZM9.32422 12.6367C9.89844 12.6367 10.2266 12.3203 10.2383 11.7109L10.4023 6.10938C10.4258 5.5 9.94531 5.05469 9.3125 5.05469C8.67969 5.05469 8.22266 5.48828 8.24609 6.09766L8.39844 11.7109C8.41016 12.3086 8.73828 12.6367 9.32422 12.6367ZM9.32422 16.2812C10.0039 16.2812 10.5781 15.7656 10.5781 15.0977C10.5781 14.418 10.0156 13.9023 9.32422 13.9023C8.64453 13.9023 8.08203 14.4297 8.08203 15.0977C8.08203 15.7539 8.65625 16.2812 9.32422 16.2812Z" fill="#FF6464"/>
</svg>
