<svg width="10" height="10" viewBox="0 0 10 10" fill="none" xmlns="http://www.w3.org/2000/svg">
<path d="M5.71323 2.33991C5.7682 2.33991 5.79569 2.30621 5.80485 2.25325C5.94686 1.45402 5.94228 1.43476 6.73938 1.27106C6.78977 1.26143 6.82642 1.23255 6.82642 1.16996C6.82642 1.11218 6.78977 1.08329 6.73938 1.07366C5.94228 0.905152 5.96976 0.885893 5.80485 0.0914781C5.79569 0.0385171 5.7682 0 5.71323 0C5.65825 0 5.62619 0.0385171 5.61702 0.0914781C5.45669 0.885893 5.48417 0.905152 4.68707 1.07366C4.6321 1.08329 4.60003 1.11218 4.60003 1.16996C4.60003 1.23255 4.6321 1.26143 4.68707 1.27106C5.48417 1.43958 5.47501 1.45402 5.61702 2.25325C5.62619 2.30621 5.65825 2.33991 5.71323 2.33991ZM4.50383 10C6.18049 10 7.54106 9.11411 8.15492 7.60713C8.23738 7.4001 8.20989 7.24121 8.12285 7.14492C8.04498 7.06307 7.90296 7.04381 7.74263 7.11122C7.39447 7.25084 6.97759 7.33751 6.45077 7.33751C4.39847 7.33751 3.08371 5.99422 3.08371 3.8806C3.08371 3.29803 3.18907 2.71545 3.33108 2.41213C3.41812 2.22436 3.41354 2.06066 3.33108 1.95956C3.24404 1.85364 3.08829 1.81993 2.87756 1.91141C1.47118 2.51324 0.5 4.05392 0.5 5.84978C0.5 8.19451 2.14459 10 4.50383 10ZM7.90296 5.59942C7.99 5.59942 8.04956 5.53683 8.05872 5.44535C8.20989 4.15503 8.26945 4.12614 9.51091 3.9143C9.60711 3.89504 9.66667 3.84689 9.66667 3.7506C9.66667 3.65912 9.60711 3.60135 9.52923 3.5869C8.27861 3.33654 8.20989 3.34617 8.05872 2.05585C8.04956 1.96437 7.99 1.90178 7.90296 1.90178C7.82051 1.90178 7.76095 1.96437 7.74721 2.05104C7.59145 3.3558 7.54564 3.39913 6.27669 3.5869C6.19882 3.59653 6.13926 3.65912 6.13926 3.7506C6.13926 3.84208 6.19882 3.89504 6.27669 3.9143C7.54564 4.16948 7.58687 4.16948 7.74721 5.45498C7.76095 5.53683 7.82051 5.59942 7.90296 5.59942ZM4.51299 9.26818C2.56147 9.26818 1.2009 7.77082 1.2009 5.79201C1.2009 4.58353 1.73688 3.50987 2.58896 2.83101C2.47443 3.14396 2.41029 3.62061 2.41029 4.08763C2.41029 6.45643 3.96785 8.04526 6.27669 8.04526C6.68441 8.04526 7.06005 7.98748 7.25704 7.92008C6.68441 8.75301 5.66284 9.26818 4.51299 9.26818Z" fill="black" fill-opacity="0.7"/>
</svg>
