<svg width="22" height="7" viewBox="0 0 22 7" fill="none" xmlns="http://www.w3.org/2000/svg">
<path d="M1.53906 4.45312C1.19922 4.59375 0.988281 4.88672 0.988281 5.19141C0.988281 5.70703 1.36328 6.09375 1.87891 6.09375C2.13672 6.09375 2.47656 5.95312 2.69922 5.87109L11.1367 2.53125L19.5625 5.87109C19.7852 5.95312 20.1367 6.09375 20.3945 6.09375C20.9102 6.09375 21.2852 5.70703 21.2852 5.19141C21.2852 4.88672 21.0742 4.59375 20.7344 4.45312L12.4141 1.16016C12.0156 0.996094 11.5234 0.808594 11.1367 0.808594C10.75 0.808594 10.2578 0.996094 9.85938 1.16016L1.53906 4.45312Z" fill="black"/>
</svg>
