<svg width="140" height="140" viewBox="0 0 140 140" fill="none" xmlns="http://www.w3.org/2000/svg">
<path d="M38 86V38C38 29.5131 41.3714 21.3737 47.3726 15.3726C53.3737 9.37141 61.5131 6 70 6C78.4869 6 86.6263 9.37141 92.6274 15.3726C98.6286 21.3737 102 29.5131 102 38" stroke="#3E3739" stroke-width="10" stroke-miterlimit="10"/>
<path d="M38 54H63.6" stroke="#3E3739" stroke-width="10" stroke-miterlimit="10"/>
<path d="M76.4 54H102V102C102 110.487 98.6286 118.626 92.6274 124.627C86.6263 130.629 78.4869 134 70 134C61.5131 134 53.3737 130.629 47.3726 124.627C41.3714 118.626 38 110.487 38 102" stroke="#3E3739" stroke-width="10" stroke-miterlimit="10"/>
<path d="M78.5325 102C78.5356 103.539 78.1223 105.051 77.3364 106.374C76.5506 107.698 75.4214 108.784 74.0684 109.518C72.7155 110.252 71.1893 110.606 69.6514 110.543C68.1134 110.481 66.6211 110.003 65.3324 109.161C64.0438 108.32 63.0068 107.145 62.3314 105.762C61.6559 104.379 61.3671 102.839 61.4956 101.305C61.6241 99.7712 62.165 98.3007 63.0611 97.0492C63.9572 95.7977 65.1751 94.812 66.5858 94.1963V80.6667H73.4125V94.1963C74.9316 94.8593 76.2247 95.9503 77.1339 97.3361C78.0432 98.7219 78.5291 100.343 78.5325 102V102Z" fill="#3E3739"/>
</svg>
