<svg width="8" height="9" viewBox="0 0 8 9" fill="none" xmlns="http://www.w3.org/2000/svg">
<path d="M0.37207 8.22461C0.542969 8.39062 0.826172 8.39062 0.992188 8.22461L4.11719 5.09961L7.24219 8.22461C7.4082 8.39062 7.69629 8.39551 7.8623 8.22461C8.02832 8.05371 8.02832 7.77539 7.8623 7.60938L4.7373 4.47949L7.8623 1.35449C8.02832 1.18848 8.0332 0.905273 7.8623 0.739258C7.69141 0.568359 7.4082 0.568359 7.24219 0.739258L4.11719 3.86426L0.992188 0.739258C0.826172 0.568359 0.538086 0.563477 0.37207 0.739258C0.206055 0.910156 0.206055 1.18848 0.37207 1.35449L3.49707 4.47949L0.37207 7.60938C0.206055 7.77539 0.201172 8.05859 0.37207 8.22461Z" fill="#FF6464"/>
</svg>
