<svg width="17" height="14" viewBox="0 0 17 14" fill="none" xmlns="http://www.w3.org/2000/svg">
<path d="M2.58691 13.3604H14.4131C15.8486 13.3604 16.5596 12.6562 16.5596 11.248V2.89453C16.5596 1.48633 15.8486 0.775391 14.4131 0.775391H2.58691C1.1582 0.775391 0.44043 1.48633 0.44043 2.89453V11.248C0.44043 12.6562 1.1582 13.3604 2.58691 13.3604ZM2.60059 12.2598C1.91699 12.2598 1.54102 11.8975 1.54102 11.1865V2.95605C1.54102 2.24512 1.91699 1.87598 2.60059 1.87598H14.3994C15.0762 1.87598 15.459 2.24512 15.459 2.95605V11.1865C15.459 11.8975 15.0762 12.2598 14.3994 12.2598H2.60059Z" fill="black"/>
</svg>
