<svg width="15" height="13" viewBox="0 0 15 13" fill="none" xmlns="http://www.w3.org/2000/svg">
<path d="M1.32031 4.66992C2.30469 4.35547 3.32324 4.19824 4.29395 4.19824C5.55176 4.19824 6.47461 4.39648 7.66406 4.39648C8.89453 4.39648 9.66016 3.5625 9.66016 2.47559C9.66016 1.36133 8.80566 0.568359 7.75293 0.568359C6.97363 0.568359 6.29004 1.05371 6.00293 1.70312C5.89355 1.92871 5.93457 2.19531 6.17383 2.31836C6.39258 2.42773 6.65918 2.35938 6.80273 2.0791C6.95312 1.73047 7.32227 1.45703 7.75293 1.45703C8.32031 1.45703 8.76465 1.85352 8.76465 2.47559C8.76465 3.09766 8.33398 3.50781 7.66406 3.50781C6.5293 3.50781 5.59277 3.30273 4.29395 3.30273C3.17969 3.30273 2.05176 3.50098 1.04688 3.82227C0.759766 3.9043 0.650391 4.15039 0.71875 4.38965C0.787109 4.62207 1.0127 4.75879 1.32031 4.66992ZM12.0117 7.86914C13.6045 7.86914 14.7324 6.85742 14.7324 5.44238C14.7324 4.04785 13.6592 3.03613 12.3262 3.03613C11.0889 3.03613 10.1729 3.89746 10.0088 5.03223C9.96777 5.3125 10.125 5.53809 10.3711 5.57227C10.624 5.60645 10.8428 5.44922 10.8975 5.12793C11.0137 4.41699 11.6084 3.9248 12.3262 3.9248C13.1602 3.9248 13.8369 4.54688 13.8369 5.44238C13.8369 6.35156 13.1191 6.98047 12.0117 6.98047C9.92676 6.98047 7.67773 5.79102 4.94336 5.79102C3.53516 5.79102 2.25 6.0166 1.04688 6.44727C0.766602 6.54297 0.650391 6.78223 0.71875 7.02148C0.787109 7.25391 1.01953 7.39746 1.32031 7.29492C2.43457 6.87109 3.59668 6.68652 4.94336 6.68652C7.6709 6.68652 9.70801 7.86914 12.0117 7.86914ZM7.6709 12.6885C8.72363 12.6885 9.53711 11.9092 9.53711 10.7949C9.53711 9.18164 7.88965 8.2793 4.85449 8.2793C3.58301 8.2793 2.20898 8.52539 1.04688 8.92871C0.766602 9.02441 0.650391 9.26367 0.71875 9.50293C0.787109 9.73535 1.01953 9.87891 1.32031 9.77637C2.40723 9.38672 3.62402 9.1748 4.85449 9.1748C7.33594 9.1748 8.64844 9.79688 8.64844 10.7949C8.64844 11.4238 8.21094 11.7998 7.6709 11.7998C7.13086 11.7998 6.80273 11.4375 6.70703 10.8633C6.66602 10.6104 6.48145 10.4053 6.1875 10.4258C5.87988 10.4463 5.75684 10.7061 5.79785 10.9795C5.9209 11.9297 6.625 12.6885 7.6709 12.6885Z" fill="black"/>
</svg>
