<svg width="50" height="65" viewBox="0 0 50 65" fill="none" xmlns="http://www.w3.org/2000/svg">
<path d="M27.7064 4.23974C38.0645 4.23974 44.9606 11.0346 44.9606 21.311C44.9606 27.4039 41.7499 31.4752 39.0417 35.378L41.9174 38.27C44.7372 34.0583 49.1764 29.3974 49.1764 21.2829C49.1764 8.50756 40.5772 0 27.7064 0C20.5591 0 14.724 2.63931 10.9828 7.15983L14.0539 10.2484C17.0413 6.45788 21.8155 4.23974 27.7064 4.23974ZM46.3286 53.6004C47.1941 54.4708 48.5342 54.4428 49.3718 53.6004C50.2094 52.7581 50.2094 51.3823 49.3718 50.54L3.66794 4.52052C2.80244 3.67819 1.40648 3.70626 0.596821 4.52052C-0.212839 5.36285 -0.184919 6.79482 0.596821 7.58099L46.3286 53.6004ZM17.5997 50.6523H35.9985C36.3335 50.6523 36.4731 50.3153 36.2777 50.0065V48.8553L32.5365 45.1209V46.4125H20.2241V44.6436C20.2241 37.3153 11.0666 30.8575 11.0666 24.7927C11.0666 24.1749 11.1503 23.6415 11.3178 23.108L6.59947 18.4471C6.37611 19.3175 6.26444 20.2721 6.26444 21.2829C6.26444 33.4125 16.0641 37.7927 16.0641 44.5875V49.108C16.0641 50.0626 16.6783 50.6523 17.5997 50.6523ZM18.6885 58.2333H36.8081C38.232 58.2333 39.3767 57.054 39.3767 55.594C39.3767 54.1339 38.232 52.9546 36.8081 52.9546H18.6885C17.2646 52.9546 16.092 54.1339 16.092 55.594C16.092 57.054 17.2646 58.2333 18.6885 58.2333ZM27.7344 65C31.5872 65 34.3233 63.2311 34.5746 60.5076H20.8941C21.1454 63.2311 23.8536 65 27.7344 65Z" fill="black"/>
</svg>
