<svg width="12" height="15" viewBox="0 0 12 15" fill="none" xmlns="http://www.w3.org/2000/svg">
<path d="M5.67871 14.8389C9.28809 14.8389 11.6943 12.3984 11.6943 8.7207C11.6943 2.60254 6.48535 0.0527344 2.86914 0.0527344C2.22656 0.0527344 1.81641 0.27832 1.81641 0.71582C1.81641 0.886719 1.8916 1.06445 2.03516 1.22852C2.84863 2.19922 3.66211 3.35449 3.67578 4.70117C3.67578 4.87207 3.66211 5.03613 3.61426 5.21387C3.23828 4.41406 2.53418 3.88086 1.90527 3.88086C1.625 3.88086 1.43359 4.08594 1.43359 4.39355C1.43359 4.57129 1.48145 4.98828 1.48145 5.28906C1.48145 6.82031 0.305664 7.71582 0.305664 10.1836C0.305664 12.9795 2.44531 14.8389 5.67871 14.8389ZM5.74707 13.8818C3.06738 13.8818 1.26953 12.3916 1.26953 10.1836C1.26953 7.94141 2.47949 7.18262 2.47949 5.40527C2.47949 5.31641 2.47949 5.23438 2.46582 5.15234C2.88281 5.50781 3.18359 6.06152 3.36816 6.84766C3.39551 6.99121 3.47754 7.05957 3.58008 7.05957C4.13379 7.05957 4.53027 5.68555 4.53027 4.81738C4.53027 3.36816 3.94922 1.98047 2.99219 0.975586C7.66797 1.24902 10.6895 4.44824 10.6895 8.68652C10.6895 11.79 8.70703 13.8818 5.74707 13.8818ZM5.83594 12.918C7.46289 12.918 8.25586 11.7217 8.25586 10.3682C8.25586 9.03516 7.47656 7.54492 5.97949 6.84082C5.91797 6.82031 5.87695 6.85449 5.88379 6.91602C6 8.03711 5.8291 9.07617 5.4668 9.56836C5.2959 9.17188 5.09082 8.83008 4.77637 8.5498C4.72852 8.50879 4.6875 8.5293 4.67383 8.59082C4.56445 9.36328 3.70996 9.79395 3.70996 10.9971C3.70996 12.1455 4.55762 12.918 5.83594 12.918Z" fill="black"/>
</svg>
