<svg width="57" height="55" viewBox="0 0 57 55" fill="none" xmlns="http://www.w3.org/2000/svg">
<path d="M6.20408 55H31.5743C35.7289 55 37.7784 52.8965 37.7784 48.3248V29.0005C37.7784 25.13 36.2828 23.0546 33.2915 22.5217V15.0892C33.2915 8.04946 37.7507 4.31922 42.93 4.31922C48.1093 4.31922 52.5408 8.04946 52.5408 15.0892V21.3157C52.5408 23.0265 53.5379 23.8679 54.812 23.8679C56.0306 23.8679 57 23.1107 57 21.3157V15.6782C57 5.10454 50.1589 0 42.93 0C35.6735 0 28.8324 5.10454 28.8324 15.6782V22.3814H6.20408C2.04956 22.3814 0 24.4569 0 29.0005V48.3248C0 52.8965 2.04956 55 6.20408 55ZM6.37026 50.793C5.09621 50.793 4.45918 50.204 4.45918 48.6334V28.72C4.45918 27.1494 5.09621 26.5885 6.37026 26.5885H31.4359C32.7099 26.5885 33.3192 27.1494 33.3192 28.72V48.6334C33.3192 50.204 32.7099 50.793 31.4359 50.793H6.37026Z" fill="black"/>
</svg>
