<svg width="25" height="37" viewBox="0 0 25 37" fill="none" xmlns="http://www.w3.org/2000/svg">
<path d="M7.25 29H18.5625C19.0938 29 19.4375 28.6719 19.4375 28.1406V25.6406C19.4375 21.8594 24.9219 19.4219 24.9219 12.6719C24.9219 5.5625 20.1094 0.8125 12.9062 0.8125C5.70312 0.8125 0.90625 5.5625 0.90625 12.6719C0.90625 19.4219 6.39062 21.8594 6.39062 25.6406V28.1406C6.39062 28.6719 6.73438 29 7.25 29ZM8.71875 25.6719C8.71875 21.0781 3.26562 18.625 3.26562 12.6875C3.26562 6.96875 7.125 3.17188 12.9062 3.17188C18.7031 3.17188 22.5625 6.96875 22.5625 12.6875C22.5625 18.625 17.1094 21.0781 17.1094 25.6719V26.6406H8.71875V25.6719ZM7.85938 33.2188H18C18.7969 33.2188 19.4375 32.5625 19.4375 31.75C19.4375 30.9375 18.7969 30.2812 18 30.2812H7.85938C7.0625 30.2812 6.40625 30.9375 6.40625 31.75C6.40625 32.5625 7.0625 33.2188 7.85938 33.2188ZM12.9219 36.9844C15.0781 36.9844 16.6094 36 16.75 34.4844H9.09375C9.23438 36 10.75 36.9844 12.9219 36.9844Z" fill="black"/>
</svg>
