<svg width="14" height="13" viewBox="0 0 14 13" fill="none" xmlns="http://www.w3.org/2000/svg">
<path d="M10.4111 7.8418V0.848633C10.4111 0.404297 10.083 0.0419922 9.625 0.0419922C9.29688 0.0419922 9.0918 0.192383 8.72949 0.513672L5.74219 3.16602L6.47363 3.9043L9.13965 1.48438C9.17383 1.4502 9.21484 1.42969 9.25586 1.42969C9.30371 1.42969 9.34473 1.46387 9.34473 1.52539V6.77539L10.4111 7.8418ZM12.6328 12.8184C12.8379 13.0234 13.1797 13.0234 13.3779 12.8184C13.583 12.6064 13.583 12.2783 13.3779 12.0732L1.6748 0.370117C1.46973 0.165039 1.12793 0.165039 0.922852 0.370117C0.717773 0.568359 0.717773 0.916992 0.922852 1.11523L12.6328 12.8184ZM3.52734 8.84668H5.48242C5.54395 8.84668 5.59863 8.86719 5.64648 8.9082L8.72949 11.6699C9.06445 11.9639 9.31055 12.1006 9.63867 12.1006C9.90527 12.1006 10.124 11.9775 10.2812 11.7451L9.48828 10.959L6.18652 7.99902C6.0498 7.87598 5.96777 7.84863 5.79004 7.84863H3.5752C3.31543 7.84863 3.19922 7.73242 3.19922 7.47949V4.66309L2.37891 3.84277C2.22168 4.06152 2.13281 4.36914 2.13281 4.77246V7.39062C2.13281 8.38184 2.59766 8.84668 3.52734 8.84668Z" fill="black"/>
</svg>
