<svg width="75" height="54" viewBox="0 0 75 54" fill="none" xmlns="http://www.w3.org/2000/svg">
<path d="M64.1021 53.6189C65.0522 54.3179 66.4214 54.0383 67.1759 52.92C72.0659 45.8468 75 36.8725 75 27.0036C75 17.1067 71.9821 8.18835 67.1759 1.0872C66.4214 -0.0590515 65.0522 -0.310667 64.1021 0.388265C63.0402 1.11515 62.9005 2.42915 63.655 3.5754C67.9862 9.97762 70.7247 18.0293 70.7247 27.0036C70.7247 35.9499 67.9862 44.0576 63.655 50.4318C62.9005 51.5781 63.0402 52.8921 64.1021 53.6189ZM5.6725 38.3822H13.6923C13.9437 38.3822 14.1673 38.4661 14.3629 38.6338L26.9654 49.9286C28.3066 51.1307 29.3405 51.6899 30.6818 51.6899C32.4702 51.6899 33.8394 50.3759 33.8394 48.5587V5.67219C33.8394 3.85497 32.4702 2.37323 30.6259 2.37323C29.2847 2.37323 28.4184 2.98829 26.9654 4.30229L14.3629 15.4852C14.1673 15.6529 13.9437 15.7368 13.6923 15.7368H5.6725C1.87221 15.7368 0 17.6659 0 21.7197V32.4273C0 36.4811 1.90015 38.3822 5.6725 38.3822ZM53.6233 46.2103C54.6572 46.9092 55.9426 46.6576 56.6971 45.5952C60.2738 40.6747 62.3696 33.9091 62.3696 27.0036C62.3696 20.0982 60.3018 13.2766 56.6971 8.41201C55.9426 7.34963 54.6572 7.09801 53.6233 7.79695C52.5894 8.49588 52.4218 9.80987 53.2321 10.9561C56.2779 15.2615 58.0384 21.0487 58.0384 27.0036C58.0384 32.9585 56.2221 38.6898 53.2321 43.0511C52.4497 44.1973 52.5894 45.5113 53.6233 46.2103ZM5.86811 34.3005C4.8342 34.3005 4.35917 33.8252 4.35917 32.7908V21.3562C4.35917 20.2939 4.8342 19.8186 5.86811 19.8186H14.81C15.5365 19.8186 16.0954 19.6788 16.7381 19.0917L28.642 8.27222C28.7817 8.13243 28.9214 8.04856 29.117 8.04856C29.3126 8.04856 29.4803 8.18835 29.4803 8.43997V45.5952C29.4803 45.8468 29.3126 46.0146 29.117 46.0146C28.9773 46.0146 28.8096 45.9307 28.642 45.7909L16.7381 35.0273C16.0954 34.4682 15.5365 34.3005 14.81 34.3005H5.86811ZM43.2843 38.9134C44.2064 39.5564 45.5197 39.3607 46.2742 38.2704C48.4259 35.4467 49.7113 31.2811 49.7113 27.0036C49.7113 22.7261 48.4259 18.5885 46.2742 15.7368C45.5197 14.6465 44.2064 14.4228 43.2843 15.0938C42.1386 15.8766 41.9709 17.2745 42.8372 18.4207C44.4579 20.6573 45.38 23.7606 45.38 27.0036C45.38 30.2467 44.43 33.322 42.8372 35.5865C41.9989 36.7607 42.1386 38.1026 43.2843 38.9134Z" fill="black"/>
</svg>
