<svg width="22" height="31" viewBox="0 0 22 31" fill="none" xmlns="http://www.w3.org/2000/svg">
<path d="M3.875 30.6719H18.1875C20.5312 30.6719 21.6875 29.5 21.6875 26.9531V16.1875C21.6875 13.9688 20.7969 12.7969 18.9844 12.5469V8.76562C18.9844 2.875 15.125 0.03125 11.0312 0.03125C6.9375 0.03125 3.07812 2.875 3.07812 8.76562V12.5469C1.26562 12.7969 0.375 13.9688 0.375 16.1875V26.9531C0.375 29.5 1.53125 30.6719 3.875 30.6719ZM5.59375 8.4375C5.59375 4.51562 8.10938 2.4375 11.0312 2.4375C13.9531 2.4375 16.4688 4.51562 16.4688 8.4375V12.5H5.59375V8.4375ZM3.96875 28.3281C3.25 28.3281 2.89062 28 2.89062 27.125V16.0312C2.89062 15.1562 3.25 14.8438 3.96875 14.8438H18.1094C18.8281 14.8438 19.1719 15.1562 19.1719 16.0312V27.125C19.1719 28 18.8281 28.3281 18.1094 28.3281H3.96875Z" fill="black"/>
</svg>
